<svg xmlns="http://www.w3.org/2000/svg" width="200" viewBox="0 0 15000000 15000000"><g><path fill="#ffff72" fill-rule="nonzero" d="M6260000 12933000l216000 675000 -233000 -54000 -133000 -459000 -324000 351000 -224000 -53000 500000 -506000 100000 -429000 199000 46000 -101000 429000zm-1122000 -863000l-17000 254000 389000 173000 177000 -184000 198000 88000 -793000 795000 -217000 -96000 61000 -1120000 202000 90000zm-59000 873000l294000 -303000 -265000 -118000 -29000 421000zm-980000 -1569000l175000 125000 -46000 882000 433000 -605000 166000 119000 -610000 852000 -207000 -147000 49000 -818000 -404000 564000 -166000 -119000 610000 -853000zm-406000 -487000c75000,88000 111000,184000 107000,287000 -4000,103000 -53000,194000 -148000,275000l-516000 438000 -132000 -156000 505000 -428000c52000,-44000 80000,-91000 85000,-141000 5000,-50000 -13000,-99000 -53000,-146000 -41000,-48000 -86000,-74000 -137000,-77000 -50000,-4000 -101000,16000 -152000,60000l-505000 429000 -132000 -155000 516000 -439000c94000,-80000 193000,-114000 295000,-101000 102000,13000 191000,64000 267000,154000zm-749000 -1062000l-162000 197000 216000 367000 251000 -47000 109000 186000 -1107000 186000 -120000 -203000 700000 -877000 113000 191000zm-556000 676000l415000 -76000 -147000 -250000 -268000 326000zm253000 -1498000l-317000 324000 34000 101000 383000 -129000 65000 195000 -993000 334000 -131000 -388000c-32000,-95000 -29000,-181000 10000,-259000 38000,-77000 101000,-131000 189000,-160000 69000,-24000 135000,-25000 198000,-4000 63000,21000 114000,61000 155000,120000l335000 -349000 72000 215000zm-449000 481000l-53000 -157000c-17000,-48000 -42000,-82000 -77000,-102000 -34000,-19000 -72000,-21000 -113000,-7000 -42000,14000 -71000,39000 -87000,75000 -16000,36000 -16000,78000 1000,127000l53000 157000 276000 -93000zm259000 -1948000l-236000 97000 17000 425000 242000 78000 8000 216000 -1062000 -362000 -9000 -237000 1032000 -439000 8000 222000zm-810000 331000l402000 130000 -11000 -289000 -391000 159000zm668000 -926000l30000 -160000c17000,-90000 3000,-169000 -42000,-238000 -45000,-69000 -121000,-113000 -227000,-134000 -107000,-20000 -194000,-7000 -261000,41000 -68000,47000 -111000,115000 -128000,204000l-30000 161000 658000 126000zm217000 -131000l-70000 367000 -1030000 -197000 71000 -369000c29000,-150000 98000,-263000 208000,-340000 110000,-77000 245000,-100000 405000,-70000 158000,31000 275000,102000 349000,215000 73000,112000 96000,243000 67000,394000zm228000 -874000l-70000 195000 -987000 -352000 70000 -195000 987000 352000zm-343000 -1299000l-147000 297000 765000 381000 -92000 184000 -765000 -381000 -147000 296000 -174000 -86000 387000 -777000 173000 86000zm978000 100000l-123000 167000 -846000 -620000 123000 -167000 846000 620000zm619000 -720000l-233000 -103000 -296000 306000 112000 229000 -150000 156000 -475000 -1018000 164000 -170000 1032000 440000 -154000 160000zm-800000 -355000l185000 380000 201000 -209000 -386000 -171000zm1936000 -1082000l147000 -67000c46000,-20000 76000,-49000 92000,-86000 16000,-37000 14000,-76000 -4000,-118000 -20000,-42000 -48000,-69000 -86000,-82000 -37000,-13000 -79000,-8000 -126000,13000l-147000 66000 124000 274000zm242000 83000l-171000 78000 163000 359000 -186000 84000 -432000 -954000 356000 -162000c94000,-42000 182000,-49000 265000,-19000 83000,29000 145000,87000 184000,174000 40000,87000 43000,172000 10000,254000 -32000,82000 -95000,144000 -189000,186000zm1272000 39000l-639000 148000 -236000 -1022000 639000 -148000 44000 188000 -441000 102000 54000 233000 399000 -92000 41000 177000 -399000 92000 54000 237000 441000 -102000 43000 187000zm721000 -52000l-221000 -396000 -106000 4000 15000 404000 -206000 8000 -39000 -1048000 409000 -16000c100000,-3000 182000,24000 246000,83000 63000,59000 97000,134000 100000,227000 3000,73000 -15000,136000 -53000,190000 -37000,55000 -90000,93000 -159000,115000l241000 420000 -227000 9000zm-334000 -567000l165000 -7000c52000,-2000 91000,-16000 119000,-44000 28000,-28000 41000,-63000 40000,-107000 -2000,-44000 -18000,-79000 -48000,-105000 -30000,-25000 -71000,-37000 -122000,-35000l-165000 6000 11000 292000zm1532000 -139000l-188000 35000c-3000,-38000 -17000,-74000 -44000,-108000 -27000,-33000 -70000,-54000 -129000,-60000 -48000,-6000 -88000,2000 -122000,25000 -33000,22000 -52000,52000 -56000,88000 -7000,64000 26000,107000 100000,130000l142000 45000c90000,28000 157000,73000 202000,135000 44000,62000 62000,130000 53000,206000 -10000,86000 -52000,157000 -128000,213000 -75000,57000 -170000,78000 -285000,65000 -65000,-8000 -124000,-24000 -174000,-50000 -51000,-26000 -90000,-57000 -119000,-93000 -28000,-37000 -50000,-74000 -64000,-113000 -13000,-39000 -20000,-78000 -19000,-118000l193000 -28000c-1000,56000 15000,105000 50000,147000 34000,42000 86000,66000 155000,75000 53000,6000 96000,-1000 129000,-22000 32000,-20000 51000,-49000 55000,-87000 4000,-30000 -4000,-58000 -24000,-82000 -19000,-25000 -49000,-43000 -88000,-56000l-142000 -46000c-82000,-27000 -145000,-70000 -188000,-127000 -43000,-58000 -60000,-125000 -51000,-203000 11000,-92000 55000,-165000 133000,-219000 78000,-55000 167000,-76000 267000,-65000 60000,7000 113000,21000 158000,43000 45000,23000 80000,49000 105000,80000 25000,32000 44000,63000 56000,94000 13000,31000 20000,63000 23000,96000zm589000 177000c-81000,36000 -141000,106000 -178000,211000 -38000,105000 -36000,196000 5000,275000 41000,79000 102000,134000 185000,163000 84000,30000 166000,27000 248000,-8000 81000,-35000 141000,-105000 178000,-210000 38000,-105000 36000,-197000 -5000,-276000 -41000,-79000 -103000,-133000 -186000,-163000 -83000,-30000 -165000,-27000 -247000,8000zm-378000 141000c55000,-154000 149000,-261000 282000,-320000 133000,-59000 269000,-64000 409000,-14000 140000,50000 243000,140000 308000,270000 66000,130000 71000,272000 16000,426000 -55000,154000 -149000,260000 -282000,319000 -133000,59000 -270000,64000 -410000,14000 -139000,-50000 -241000,-140000 -307000,-270000 -65000,-130000 -71000,-272000 -16000,-425000zm1745000 1435000l-179000 -117000 9000 -883000 -407000 622000 -171000 -112000 574000 -877000 213000 140000 -15000 819000 380000 -580000 171000 111000 -575000 877000zm683000 665000l112000 -229000 -296000 -307000 -233000 104000 -150000 -155000 1034000 -439000 164000 170000 -477000 1016000 -154000 -160000zm383000 -787000l-386000 171000 201000 209000 185000 -380000zm208000 1627000l-358000 -568000 886000 -560000 109000 173000 -721000 455000 249000 395000 -165000 105000zm512000 1288000l-64000 -195000 414000 -134000 -141000 -435000 -413000 134000 -63000 -194000 997000 -323000 63000 194000 -401000 130000 141000 435000 401000 -130000 63000 196000 -997000 322000zm856000 423000c-65000,-60000 -154000,-86000 -265000,-77000 -111000,8000 -194000,47000 -249000,117000 -56000,69000 -80000,148000 -74000,235000 7000,89000 43000,163000 109000,223000 65000,61000 153000,86000 264000,78000 111000,-9000 195000,-47000 250000,-117000 56000,-69000 80000,-149000 73000,-237000 -6000,-87000 -43000,-161000 -108000,-222000zm-282000 -288000c163000,-12000 299000,30000 407000,128000 108000,97000 168000,220000 179000,367000 12000,148000 -29000,279000 -121000,392000 -92000,113000 -220000,175000 -383000,188000 -162000,12000 -297000,-30000 -406000,-128000 -108000,-97000 -168000,-220000 -179000,-369000 -11000,-147000 29000,-277000 121000,-390000 92000,-113000 220000,-175000 382000,-188000zm-645000 2448000l38000 -198000 722000 139000 -665000 -435000 32000 -167000 772000 -159000 -716000 -137000 37000 -192000 1030000 197000 -51000 265000 -803000 166000 686000 445000 -52000 273000 -1030000 -197000zm-351000 828000l267000 -600000 958000 425000 -267000 600000 -175000 -78000 183000 -414000 -219000 -97000 -166000 374000 -166000 -73000 166000 -375000 -222000 -98000 -183000 413000 -176000 -77000zm191000 1311000l182000 -277000 -715000 -468000 112000 -172000 715000 468000 182000 -277000 162000 106000 -476000 726000 -162000 -106000zm-416000 366000c5000,-89000 -32000,-173000 -109000,-254000 -77000,-80000 -160000,-119000 -249000,-117000 -89000,1000 -165000,33000 -228000,93000 -64000,62000 -99000,137000 -103000,226000 -5000,89000 31000,173000 109000,253000 77000,81000 160000,120000 249000,118000 89000,-1000 166000,-33000 229000,-94000 64000,-61000 97000,-136000 102000,-225000zm42000 -401000c114000,117000 168000,249000 162000,395000 -6000,145000 -63000,269000 -169000,372000 -107000,103000 -234000,156000 -379000,157000 -146000,1000 -276000,-58000 -389000,-176000 -113000,-117000 -167000,-248000 -161000,-394000 6000,-145000 63000,-270000 170000,-373000 106000,-103000 232000,-155000 378000,-156000 146000,0 275000,58000 388000,175000zm-1931000 1250000l205000 720000 -179000 106000 -283000 -1050000 180000 -107000 586000 522000 -173000 -765000 183000 -109000 784000 755000 -186000 110000 -532000 -524000 167000 740000 -183000 107000 -569000 -505000zm-1531000 142000l209000 -49000 632000 618000 -168000 -725000 199000 -46000 236000 1022000 -248000 57000 -581000 -577000 156000 675000 -199000 46000 -236000 -1021000z"/></g></svg>
